<?xml version="1.0" encoding="UTF-8" standalone="no"?>
<!-- Created with Inkscape (http://www.inkscape.org/) -->

<svg
   width="3840"
   height="2160"
   viewBox="0 0 3840 2160"
   version="1.1"
   id="svg1"
   xml:space="preserve"
   xmlns="http://www.w3.org/2000/svg"
   xmlns:svg="http://www.w3.org/2000/svg"><defs
     id="defs1" /><path
     style="fill:none;stroke:#000000;stroke-width:4.31703px;stroke-linecap:butt;stroke-linejoin:miter;stroke-opacity:1"
     d="m 318.54021,1740.8596 c 66.13868,-49.0634 217.4136,-120.6014 269.37397,-148.317 86.58138,-46.1824 102.06685,-64.8227 102.06685,-64.8227"
     id="produce-from-natural-resources" /><path
     style="fill:none;stroke:#000000;stroke-width:4.31703px;stroke-linecap:butt;stroke-linejoin:miter;stroke-opacity:1"
     d="M 654.72817,705.34214 C 608.51231,774.1318 590.06323,883.68595 588.44539,930.55289"
     id="produce-from-recycled-materials" /><path
     style="fill:none;stroke:#000000;stroke-width:4.31703px;stroke-linecap:butt;stroke-linejoin:miter;stroke-opacity:1"
     d="m 875.79368,1396.3109 c 53.97761,-24.6668 68.78827,-33.0368 125.90582,-58.6885"
     id="acquire-newly-produced" /><path
     style="fill:none;stroke:#000000;stroke-width:4.31703px;stroke-linecap:butt;stroke-linejoin:miter;stroke-opacity:1"
     d="M 2588.8379,470.0233 C 2327.0987,402.3249 2079.4663,366.95436 1863.9731,357.40673 1552.4037,343.60236 1344.673,359.8111 1170.5537,391.04927"
     id="recycle" /><path
     style="fill:none;stroke:#000000;stroke-width:4.31703px;stroke-linecap:butt;stroke-linejoin:miter;stroke-opacity:1"
     d="m 3102.9434,972.58497 c -12.8232,-70.33503 -30.0141,-133.02651 -62.4921,-195.71799"
     id="dispose-hibernating" /><path
     style="fill:none;stroke:#000000;stroke-width:4.31703px;stroke-linecap:butt;stroke-linejoin:miter;stroke-opacity:1"
     d="M 2455.4515,804.25589 C 2574.6989,748.68042 2616.5,729.85669 2730.4071,681.48353"
     id="dispose-broken" /><path
     style="fill:none;stroke:#000000;stroke-width:4.31703px;stroke-linecap:butt;stroke-linejoin:miter;stroke-opacity:1"
     d="m 2882.7461,1152.5176 c -207.7881,137.0227 -404.4584,208.998 -625.9052,271.2894 -275.201,77.4121 -579.936,77.7672 -875.6728,-81.3935"
     id="acquire-used" /><path
     style="fill:none;stroke:#000000;stroke-width:4.31703px;stroke-linecap:butt;stroke-linejoin:miter;stroke-opacity:1"
     d="m 2871.8167,1126.665 c -207.7881,137.0227 -407.2572,211.7968 -628.704,274.0882 -275.201,77.4121 -557.5454,77.7673 -853.2822,-81.3934"
     id="abandon" /><path
     style="fill:none;stroke:#000000;stroke-width:4.31703px;stroke-linecap:butt;stroke-linejoin:miter;stroke-opacity:1"
     d="M 2278.0371,685.99143 C 2183.5288,604.43478 2069.4223,570.85172 1947.881,542.76999"
     id="repair" /><path
     style="fill:none;stroke:#000000;stroke-width:4.31703px;stroke-linecap:butt;stroke-linejoin:miter;stroke-opacity:1"
     d="m 3058.3353,1220.4633 c -47.9511,70.3243 -92.2159,108.7423 -147.7681,155.5736"
     id="refurbish" /><path
     style="fill:none;stroke:#000000;stroke-width:4.31703px;stroke-linecap:butt;stroke-linejoin:miter;stroke-opacity:1"
     d="m 2966.3495,533.76299 c 32.6901,-13.78344 68.5554,-26.18744 136.5759,-88.11709 23.2349,-21.15433 316.979,-194.22686 411.4705,-266.80379"
     id="landfill" /><path
     style="fill:none;stroke:#000000;stroke-width:4.31703px;stroke-linecap:butt;stroke-linejoin:miter;stroke-opacity:1"
     d="m 1322.8029,1070.6419 c 130.7287,-46.3841 300.191,-80.10799 526.0132,-135.24874 188.0237,-45.91122 316.9023,-77.49174 436.7298,-86.65384"
     id="go-broken" /><path
     style="fill:none;stroke:#000000;stroke-width:4.31703px;stroke-linecap:butt;stroke-linejoin:miter;stroke-opacity:1"
     d="M 1164.6507,690.53262 C 1029.1084,756.16307 953.67475,905.50747 1022.5973,1061.8703"
     id="acquire-repaired" /><path
     style="fill:none;stroke:#000000;stroke-width:4.31703px;stroke-linecap:butt;stroke-linejoin:miter;stroke-opacity:1"
     d="m 2299.5471,1552.7579 c -453.7464,72.9722 -533.7279,62.7656 -947.3077,-139.5575"
     id="acquire-refurbished" /><circle
     style="fill:none;fill-opacity:0.983437;fill-rule:evenodd;stroke:#000000;stroke-width:5.35178;stroke-linecap:round;stroke-miterlimit:0;stroke-dasharray:none"
     id="recycled-materials"
     cx="848"
     cy="510"
     r="85.614594" /><circle
     style="fill:none;fill-opacity:0.983437;fill-rule:evenodd;stroke:#000000;stroke-width:5.3482;stroke-linecap:round;stroke-miterlimit:0"
     id="hibernating-phones"
     r="98.985062"
     cy="967"
     cx="3100" /><circle
     style="fill:none;fill-opacity:0.983437;fill-rule:evenodd;stroke:#000000;stroke-width:5.348;stroke-linecap:round;stroke-miterlimit:0;stroke-dasharray:none"
     id="disposed-phones"
     cx="2865"
     cy="597"
     r="96.09153" /><circle
     style="fill:none;fill-opacity:0.983437;fill-rule:evenodd;stroke:#000000;stroke-width:5.348;stroke-linecap:round;stroke-miterlimit:0;stroke-dasharray:none"
     id="broken-phones"
     cx="2385"
     cy="832"
     r="77.892174" /><circle
     style="fill:none;fill-opacity:0.983437;fill-rule:evenodd;stroke:#000000;stroke-width:5.348;stroke-linecap:round;stroke-miterlimit:0;stroke-dasharray:none"
     id="repaired-phones"
     cx="1357"
     cy="653"
     r="88.288689" /><circle
     style="fill:none;fill-opacity:0.983437;fill-rule:evenodd;stroke:#000000;stroke-width:5.3482;stroke-linecap:round;stroke-miterlimit:0"
     id="phones-in-use"
     cx="1131"
     cy="1287"
     r="93.636871" /><circle
     style="fill:none;fill-opacity:0.983437;fill-rule:evenodd;stroke:#000000;stroke-width:5.3482;stroke-linecap:round;stroke-miterlimit:0"
     id="refurbished-phones"
     cx="2502"
     cy="1527"
     r="93.636871" /><circle
     style="fill:none;fill-opacity:0.983437;fill-rule:evenodd;stroke:#000000;stroke-width:5.3482;stroke-linecap:round;stroke-miterlimit:0"
     id="newly-produced-phones"
     cx="734"
     cy="1487"
     r="77.592308" /><rect
     style="fill:none;fill-opacity:0.983437;fill-rule:evenodd;stroke:none;stroke-width:5.348;stroke-linecap:round;stroke-miterlimit:0;stroke-dasharray:none"
     id="landfilled-phones"
     width="109.63789"
     height="109.63789"
     x="3121"
     y="555" /><rect
     style="fill:none;fill-opacity:0.983437;fill-rule:evenodd;stroke:none;stroke-width:5.348;stroke-linecap:round;stroke-miterlimit:0;stroke-dasharray:none"
     id="natural-resources"
     width="109.63789"
     height="109.63789"
     x="123"
     y="1824" /></svg>
