<?xml version="1.0" encoding="UTF-8" standalone="no"?>
<!-- Created with Inkscape (http://www.inkscape.org/) -->

<svg
   width="3840"
   height="2160"
   viewBox="0 0 3840 2160"
   version="1.1"
   id="svg1"
   xml:space="preserve"
   xmlns="http://www.w3.org/2000/svg"
   xmlns:svg="http://www.w3.org/2000/svg"><defs
     id="defs1" /><path
     style="fill:none;stroke:#000000;stroke-width:4.31703px;stroke-linecap:butt;stroke-linejoin:miter;stroke-opacity:1"
     d="m 291.13122,1812.3849 c 39.47211,-35.828 59.27942,-48.2214 98.78297,-72.4735 68.99411,-42.357 144.63793,-79.0314 189.78907,-105.0438 85.02689,-48.9855 122.81361,-77.38 122.81361,-77.38"
     id="produce-from-natural-resources" /><path
     style="fill:none;stroke:#000000;stroke-width:4.31703px;stroke-linecap:butt;stroke-linejoin:miter;stroke-opacity:1"
     d="m 674.92897,734.82439 c -21.07623,27.30084 -44.7439,127.5505 -55.9094,188.63092"
     id="produce-from-recycled-materials" /><path
     style="fill:none;stroke:#000000;stroke-width:4.31703px;stroke-linecap:butt;stroke-linejoin:miter;stroke-opacity:1"
     d="m 804.8179,1469.4706 c 0,0 129.42369,-58.1506 155.64525,-69.826 78.28405,-34.857 103.54355,-47.5644 191.92335,-82.769"
     id="acquire-newly-produced" /><path
     style="fill:none;stroke:#000000;stroke-width:4.31703px;stroke-linecap:butt;stroke-linejoin:miter;stroke-opacity:1"
     d="M 2941.5329,453.09831 C 2408.8338,351.10314 1376.1311,318.51882 1160.1803,411.79604"
     id="recycle" /><path
     style="fill:none;stroke:#000000;stroke-width:4.31703px;stroke-linecap:butt;stroke-linejoin:miter;stroke-opacity:1"
     d="m 3278.7449,1032.6414 -1.3437,-304.9115"
     id="dispose-hibernating" /><path
     style="fill:none;stroke:#000000;stroke-width:4.31703px;stroke-linecap:butt;stroke-linejoin:miter;stroke-opacity:1"
     d="M 2615.9659,758.39462 C 2735.2133,689.71593 2862.1854,629.39867 3004.4828,577.7497"
     id="dispose-broken" /><path
     style="fill:none;stroke:#000000;stroke-width:4.31703px;stroke-linecap:butt;stroke-linejoin:miter;stroke-opacity:1"
     d="m 3231.3748,1301.9152 c -113.5766,103.1476 -430.2912,168.751 -671.7386,218.6646 -370.7378,76.6414 -606.9984,87.3965 -1143.3207,-125.9928"
     id="acquire-used" /><path
     style="fill:none;stroke:#000000;stroke-width:4.31703px;stroke-linecap:butt;stroke-linejoin:miter;stroke-opacity:1"
     d="m 3122.8338,1129.4602 -463.9399,-29.7607 c -18.5858,147.966 -155.8422,250.6853 -235.856,275.6074 -568.8267,177.174 -897.274,46.0452 -989.181,-19.6409"
     id="abandon" /><path
     style="fill:none;stroke:#000000;stroke-width:4.31703px;stroke-linecap:butt;stroke-linejoin:miter;stroke-opacity:1"
     d="M 2339.1855,696.91078 C 2179.1611,630.64122 2105.4562,622.17267 1986.0987,597.36674"
     id="repair" /><path
     style="fill:none;stroke:#000000;stroke-width:4.31703px;stroke-linecap:butt;stroke-linejoin:miter;stroke-opacity:1"
     d="m 3357.8105,1307.2271 c 19.2209,77.3214 -114.6066,352.2409 -156.1646,372.4833"
     id="refurbish" /><path
     style="fill:none;stroke:#000000;stroke-width:4.31703px;stroke-linecap:butt;stroke-linejoin:miter;stroke-opacity:1"
     d="m 3261.6265,458.19448 c 85.6279,-36.10419 151.5774,-59.67176 235.9764,-96.02875"
     id="landfill" /><path
     style="fill:none;stroke:#000000;stroke-width:4.31703px;stroke-linecap:butt;stroke-linejoin:miter;stroke-opacity:1"
     d="m 1371.94,1104.4919 c 224.3969,-83.4985 568.3749,-179.90155 597.732,-172.78298 26.6504,6.46224 254.3771,-77.39722 385.7577,-120.09539"
     id="go-broken" /><path
     style="fill:none;stroke:#000000;stroke-width:4.31703px;stroke-linecap:butt;stroke-linejoin:miter;stroke-opacity:1"
     d="M 1265.4087,683.53554 C 1129.8664,735.17182 964.87009,874.7203 1082.7722,1129.0423"
     id="acquire-repaired" /><path
     style="fill:none;stroke:#000000;stroke-width:4.31703px;stroke-linecap:butt;stroke-linejoin:miter;stroke-opacity:1"
     d="m 2526.2526,1762.6704 c -164.8851,29.0261 -457.601,-31.9033 -583.7516,-107.4411 -237.5091,-41.2836 -437.5245,-151.1516 -572.0692,-222.4371"
     id="acquire-refurbished" /><circle
     style="fill:none;fill-opacity:0.983437;fill-rule:evenodd;stroke:#000000;stroke-width:5.35178;stroke-linecap:round;stroke-miterlimit:0;stroke-dasharray:none"
     id="recycled-materials"
     cx="818"
     cy="542"
     r="85.614594" /><circle
     style="fill:none;fill-opacity:0.983437;fill-rule:evenodd;stroke:#000000;stroke-width:5.3482;stroke-linecap:round;stroke-miterlimit:0"
     id="hibernating-phones"
     r="98.985062"
     cy="1175"
     cx="3240" /><circle
     style="fill:none;fill-opacity:0.983437;fill-rule:evenodd;stroke:#000000;stroke-width:5.348;stroke-linecap:round;stroke-miterlimit:0;stroke-dasharray:none"
     id="disposed-phones"
     cx="3145.4536"
     cy="531.51379"
     r="96.09153" /><circle
     style="fill:none;fill-opacity:0.983437;fill-rule:evenodd;stroke:#000000;stroke-width:5.348;stroke-linecap:round;stroke-miterlimit:0;stroke-dasharray:none"
     id="broken-phones"
     cx="2491"
     cy="764"
     r="77.892174" /><circle
     style="fill:none;fill-opacity:0.983437;fill-rule:evenodd;stroke:#000000;stroke-width:5.348;stroke-linecap:round;stroke-miterlimit:0;stroke-dasharray:none"
     id="repaired-phones"
     cx="1478"
     cy="581"
     r="88.288689" /><circle
     style="fill:none;fill-opacity:0.983437;fill-rule:evenodd;stroke:#000000;stroke-width:5.3482;stroke-linecap:round;stroke-miterlimit:0"
     id="phones-in-use"
     cx="1194"
     cy="1204"
     r="93.636871" /><circle
     style="fill:none;fill-opacity:0.983437;fill-rule:evenodd;stroke:#000000;stroke-width:5.3482;stroke-linecap:round;stroke-miterlimit:0"
     id="refurbished-phones"
     cx="2795"
     cy="1690"
     r="93.636871" /><circle
     style="fill:none;fill-opacity:0.983437;fill-rule:evenodd;stroke:#000000;stroke-width:5.3482;stroke-linecap:round;stroke-miterlimit:0"
     id="newly-produced-phones"
     cx="742"
     cy="1500"
     r="77.592308" /><rect
     style="fill:none;fill-opacity:0.983437;fill-rule:evenodd;stroke:none;stroke-width:5.348;stroke-linecap:round;stroke-miterlimit:0;stroke-dasharray:none"
     id="landfilled-phones"
     width="109.63789"
     height="109.63789"
     x="3121"
     y="555" /><rect
     style="fill:none;fill-opacity:0.983437;fill-rule:evenodd;stroke:none;stroke-width:5.348;stroke-linecap:round;stroke-miterlimit:0;stroke-dasharray:none"
     id="natural-resources"
     width="109.63789"
     height="109.63789"
     x="123"
     y="1824" /></svg>
